<?xml version="1.0" encoding="UTF-8" standalone="no"?>
<!DOCTYPE svg PUBLIC "-//W3C//DTD SVG 1.1//EN"
 "http://www.w3.org/Graphics/SVG/1.1/DTD/svg11.dtd">
<!-- Generated by graphviz version 2.26.3 (20100126.1600)
 -->
<!-- Title: Xorg Pages: 1 -->
<svg width="929pt" height="646pt"
 viewBox="0.00 0.00 929.00 646.00" xmlns="http://www.w3.org/2000/svg" xmlns:xlink="http://www.w3.org/1999/xlink">
<g id="graph1" class="graph" transform="scale(1 1) rotate(0) translate(4 642)">
<title>Xorg</title>
<polygon fill="white" stroke="white" points="-4,5 -4,-642 926,-642 926,5 -4,5"/>
<g id="graph2" class="cluster"><title>cluster_client</title>
<polygon fill="none" stroke="green" points="546,-412 546,-630 872,-630 872,-412 546,-412"/>
<text text-anchor="middle" x="709" y="-608" font-family="Times Roman,serif" font-size="20.00">Client</text>
</g>
<g id="graph3" class="cluster"><title>clusterLibraries</title>
<polygon fill="none" stroke="black" points="554,-420 554,-590 864,-590 864,-420 554,-420"/>
<text text-anchor="middle" x="709" y="-569.8" font-family="Times Roman,serif" font-size="18.00">Client Libraries</text>
</g>
<g id="graph4" class="cluster"><title>cluster_hw</title>
<polygon fill="none" stroke="grey" points="98,-420 98,-506 464,-506 464,-420 98,-420"/>
<text text-anchor="middle" x="281" y="-484" font-family="Times Roman,serif" font-size="20.00">Hardware devices</text>
</g>
<g id="graph5" class="cluster"><title>cluster_server</title>
<polygon fill="none" stroke="blue" points="8,-8 8,-404 795,-404 795,-8 8,-8"/>
<text text-anchor="middle" x="401.5" y="-382" font-family="Times Roman,serif" font-size="20.00">Server</text>
</g>
<g id="graph6" class="cluster"><title>cluster_ddx</title>
<polygon fill="none" stroke="purple" points="16,-16 16,-364 319,-364 319,-16 16,-16"/>
<text text-anchor="middle" x="167.5" y="-342" font-family="Times Roman,serif" font-size="20.00">DDX</text>
</g>
<g id="graph7" class="cluster"><title>clusterAcceleration</title>
<polygon fill="none" stroke="purple" points="24,-24 24,-192 311,-192 311,-24 24,-24"/>
<text text-anchor="middle" x="167.5" y="-170" font-family="Times Roman,serif" font-size="20.00">Acceleration Architectures</text>
</g>
<g id="graph8" class="cluster"><title>cluster_dix</title>
<polygon fill="none" stroke="purple" points="398,-239 398,-325 712,-325 712,-239 398,-239"/>
<text text-anchor="middle" x="555" y="-303" font-family="Times Roman,serif" font-size="20.00">DIX</text>
</g>
<g id="graph9" class="cluster"><title>cluster_extensions</title>
<polygon fill="none" stroke="purple" points="327,-98 327,-200 787,-200 787,-98 327,-98"/>
<text text-anchor="middle" x="557" y="-178" font-family="Times Roman,serif" font-size="20.00">Extensions</text>
</g>
<!-- Cairo -->
<g id="node3" class="node"><title>Cairo</title>
<ellipse fill="none" stroke="black" cx="817" cy="-533" rx="39.0967" ry="19.0919"/>
<text text-anchor="middle" x="817" y="-529" font-family="Times Roman,serif" font-size="15.00">Cairo</text>
</g>
<!-- OpenGL -->
<g id="node5" class="node"><title>OpenGL</title>
<ellipse fill="none" stroke="black" cx="802" cy="-447" rx="53.9477" ry="19.0919"/>
<text text-anchor="middle" x="802" y="-443" font-family="Times Roman,serif" font-size="15.00">OpenGL</text>
</g>
<!-- Cairo&#45;&gt;OpenGL -->
<g id="edge6" class="edge"><title>Cairo&#45;&gt;OpenGL</title>
<path fill="none" stroke="black" d="M813.671,-513.914C811.729,-502.78 809.24,-488.509 807.06,-476.009"/>
<polygon fill="black" stroke="black" points="810.486,-475.283 805.32,-466.033 803.59,-476.486 810.486,-475.283"/>
</g>
<!-- Xlib or xcb -->
<g id="node7" class="node"><title>Xlib or xcb</title>
<ellipse fill="none" stroke="black" cx="646" cy="-447" rx="67.8823" ry="19.0919"/>
<text text-anchor="middle" x="646" y="-443" font-family="Times Roman,serif" font-size="15.00">Xlib or xcb</text>
</g>
<!-- Cairo&#45;&gt;Xlib or xcb -->
<g id="edge4" class="edge"><title>Cairo&#45;&gt;Xlib or xcb</title>
<path fill="none" stroke="black" d="M787.239,-520.599C781.246,-518.278 774.958,-515.966 769,-514 755.896,-509.676 751.639,-511.538 739,-506 717.673,-496.655 695.593,-482.851 678.301,-470.944"/>
<polygon fill="black" stroke="black" points="679.921,-467.804 669.725,-464.924 675.899,-473.534 679.921,-467.804"/>
</g>
<!-- Pango -->
<g id="node4" class="node"><title>Pango</title>
<ellipse fill="none" stroke="black" cx="606" cy="-533" rx="43.8406" ry="19.0919"/>
<text text-anchor="middle" x="606" y="-529" font-family="Times Roman,serif" font-size="15.00">Pango</text>
</g>
<!-- Pango&#45;&gt;Xlib or xcb -->
<g id="edge8" class="edge"><title>Pango&#45;&gt;Xlib or xcb</title>
<path fill="none" stroke="black" d="M614.679,-514.339C619.989,-502.923 626.887,-488.094 632.857,-475.258"/>
<polygon fill="black" stroke="black" points="636.156,-476.465 637.199,-465.921 629.809,-473.512 636.156,-476.465"/>
</g>
<!-- Mesa -->
<g id="node16" class="node"><title>Mesa</title>
<ellipse fill="none" stroke="black" cx="880" cy="-266" rx="38.8909" ry="19.0919"/>
<text text-anchor="middle" x="880" y="-262" font-family="Times Roman,serif" font-size="15.00">Mesa</text>
</g>
<!-- OpenGL&#45;&gt;Mesa -->
<g id="edge49" class="edge"><title>OpenGL&#45;&gt;Mesa</title>
<path fill="none" stroke="black" d="M813.872,-428.09C818.267,-420.715 823.121,-412.1 827,-404 844.575,-367.305 860.707,-323.137 870.444,-294.823"/>
<polygon fill="black" stroke="black" points="873.827,-295.746 873.733,-285.152 867.2,-293.493 873.827,-295.746"/>
</g>
<!-- Toolkit -->
<g id="node6" class="node"><title>Toolkit</title>
<ellipse fill="none" stroke="black" cx="714" cy="-533" rx="45.9619" ry="19.0919"/>
<text text-anchor="middle" x="714" y="-529" font-family="Times Roman,serif" font-size="15.00">Toolkit</text>
</g>
<!-- Toolkit&#45;&gt;Xlib or xcb -->
<g id="edge10" class="edge"><title>Toolkit&#45;&gt;Xlib or xcb</title>
<path fill="none" stroke="black" d="M699.579,-514.762C690.152,-502.839 677.678,-487.063 667.138,-473.734"/>
<polygon fill="black" stroke="black" points="669.818,-471.48 660.87,-465.807 664.327,-475.822 669.818,-471.48"/>
</g>
<!-- Dispatch -->
<g id="node29" class="node"><title>Dispatch</title>
<ellipse fill="none" stroke="black" cx="646" cy="-266" rx="58.1882" ry="19.0919"/>
<text text-anchor="middle" x="646" y="-262" font-family="Times Roman,serif" font-size="15.00">Dispatch</text>
</g>
<!-- Xlib or xcb&#45;&gt;Dispatch -->
<g id="edge35" class="edge"><title>Xlib or xcb&#45;&gt;Dispatch</title>
<path fill="none" stroke="black" d="M646,-427.972C646,-396.333 646,-332.695 646,-295.297"/>
<polygon fill="black" stroke="black" points="649.5,-295.045 646,-285.045 642.5,-295.045 649.5,-295.045"/>
</g>
<!-- Display -->
<g id="node13" class="node"><title>Display</title>
<ellipse fill="none" stroke="black" cx="296" cy="-447" rx="50.2046" ry="19.0919"/>
<text text-anchor="middle" x="296" y="-443" font-family="Times Roman,serif" font-size="15.00">Display</text>
</g>
<!-- Keyboard -->
<g id="node14" class="node"><title>Keyboard</title>
<ellipse fill="none" stroke="black" cx="167" cy="-447" rx="60.8112" ry="19.0919"/>
<text text-anchor="middle" x="167" y="-443" font-family="Times Roman,serif" font-size="15.00">Keyboard</text>
</g>
<!-- Input Drivers -->
<g id="node21" class="node"><title>Input Drivers</title>
<polygon fill="none" stroke="red" points="311,-322.5 199,-322.5 199,-209.5 311,-209.5 311,-322.5"/>
<polyline fill="none" stroke="red" points="211,-322.5 199,-310.5 "/>
<polyline fill="none" stroke="red" points="199,-221.5 211,-209.5 "/>
<polyline fill="none" stroke="red" points="299,-209.5 311,-221.5 "/>
<polyline fill="none" stroke="red" points="311,-310.5 299,-322.5 "/>
<text text-anchor="middle" x="255" y="-262" font-family="Times Roman,serif" font-size="15.00">Input Drivers</text>
</g>
<!-- Keyboard&#45;&gt;Input Drivers -->
<g id="edge37" class="edge"><title>Keyboard&#45;&gt;Input Drivers</title>
<path fill="none" stroke="black" stroke-dasharray="5,2" d="M177.285,-428.27C181.335,-420.769 185.97,-412.018 190,-404 201.706,-380.707 214.02,-354.923 224.744,-332.008"/>
<polygon fill="black" stroke="black" points="228.024,-333.255 229.08,-322.713 221.68,-330.296 228.024,-333.255"/>
</g>
<!-- Mouse -->
<g id="node15" class="node"><title>Mouse</title>
<ellipse fill="none" stroke="black" cx="410" cy="-447" rx="45.9619" ry="19.0919"/>
<text text-anchor="middle" x="410" y="-443" font-family="Times Roman,serif" font-size="15.00">Mouse</text>
</g>
<!-- Mouse&#45;&gt;Input Drivers -->
<g id="edge39" class="edge"><title>Mouse&#45;&gt;Input Drivers</title>
<path fill="none" stroke="blue" d="M394.571,-428.983C374.994,-406.122 340.167,-365.453 310.202,-330.461"/>
<polygon fill="blue" stroke="blue" points="312.658,-327.949 303.495,-322.63 307.341,-332.502 312.658,-327.949"/>
</g>
<!-- Gallium -->
<g id="node17" class="node"><title>Gallium</title>
<ellipse fill="none" stroke="black" cx="868" cy="-133" rx="53.2379" ry="19.0919"/>
<text text-anchor="middle" x="868" y="-129" font-family="Times Roman,serif" font-size="15.00">Gallium</text>
</g>
<!-- Mesa&#45;&gt;Gallium -->
<g id="edge53" class="edge"><title>Mesa&#45;&gt;Gallium</title>
<path fill="none" stroke="black" d="M878.281,-246.944C876.285,-224.821 872.97,-188.081 870.645,-162.316"/>
<polygon fill="black" stroke="black" points="874.101,-161.665 869.716,-152.02 867.129,-162.294 874.101,-161.665"/>
</g>
<!-- Gallium&#45;&gt;Display -->
<g id="edge55" class="edge"><title>Gallium&#45;&gt;Display</title>
<path fill="none" stroke="purple" stroke-dasharray="5,2" d="M858.66,-152.117C829.498,-211.424 740.625,-389.209 716,-404 698.803,-414.329 374.286,-406.48 355,-412 345.397,-414.749 335.754,-419.453 327.128,-424.536"/>
<polygon fill="purple" stroke="purple" points="325.17,-421.632 318.55,-429.905 328.884,-427.566 325.17,-421.632"/>
</g>
<!-- Event_Queue -->
<g id="node19" class="node"><title>Event_Queue</title>
<ellipse fill="none" stroke="black" cx="488" cy="-266" rx="82.0244" ry="19.0919"/>
<text text-anchor="middle" x="488" y="-262" font-family="Times Roman,serif" font-size="15.00">Event_Queue</text>
</g>
<!-- Event_Queue&#45;&gt;Xlib or xcb -->
<g id="edge47" class="edge"><title>Event_Queue&#45;&gt;Xlib or xcb</title>
<path fill="none" stroke="black" d="M497.339,-285.195C511.855,-313.627 542.043,-367.498 579,-404 586.75,-411.655 596.078,-418.672 605.279,-424.718"/>
<polygon fill="black" stroke="black" points="603.676,-427.845 614.005,-430.207 607.404,-421.92 603.676,-427.845"/>
</g>
<!-- Input Drivers&#45;&gt;Event_Queue -->
<g id="edge43" class="edge"><title>Input Drivers&#45;&gt;Event_Queue</title>
<path fill="none" stroke="black" d="M311.43,-266C339.482,-266 367.535,-266 395.587,-266"/>
<polygon fill="black" stroke="black" points="395.922,-269.5 405.922,-266 395.922,-262.5 395.922,-269.5"/>
</g>
<!-- Xinput -->
<g id="node33" class="node"><title>Xinput</title>
<polygon fill="none" stroke="black" points="512,-160 445,-133 512,-106 579,-133 512,-160"/>
<polyline fill="none" stroke="black" points="456.13,-137.485 456.13,-128.515 "/>
<polyline fill="none" stroke="black" points="500.87,-110.485 523.13,-110.485 "/>
<polyline fill="none" stroke="black" points="567.87,-128.515 567.87,-137.485 "/>
<polyline fill="none" stroke="black" points="523.13,-155.515 500.87,-155.515 "/>
<text text-anchor="middle" x="512" y="-129" font-family="Times Roman,serif" font-size="15.00">Xinput</text>
</g>
<!-- Input Drivers&#45;&gt;Xinput -->
<g id="edge41" class="edge"><title>Input Drivers&#45;&gt;Xinput</title>
<path fill="none" stroke="black" d="M311.174,-239.439C336.109,-228.47 366.077,-216.386 394,-208 412.199,-202.534 418.934,-208.357 436,-200 455.46,-190.47 473.79,-174.598 487.571,-160.693"/>
<polygon fill="black" stroke="black" points="490.34,-162.863 494.738,-153.224 485.289,-158.017 490.34,-162.863"/>
</g>
<!-- Video Drivers -->
<g id="node22" class="node"><title>Video Drivers</title>
<polygon fill="none" stroke="red" points="181,-324 65,-324 65,-208 181,-208 181,-324"/>
<polyline fill="none" stroke="red" points="77,-324 65,-312 "/>
<polyline fill="none" stroke="red" points="65,-220 77,-208 "/>
<polyline fill="none" stroke="red" points="169,-208 181,-220 "/>
<polyline fill="none" stroke="red" points="181,-312 169,-324 "/>
<text text-anchor="middle" x="123" y="-262" font-family="Times Roman,serif" font-size="15.00">Video Drivers</text>
</g>
<!-- Video Drivers&#45;&gt;Display -->
<g id="edge57" class="edge"><title>Video Drivers&#45;&gt;Display</title>
<path fill="none" stroke="purple" stroke-dasharray="5,2" d="M137.616,-324.169C147.71,-352.508 164.117,-384.579 190,-404 206.949,-416.717 217.11,-404.694 237,-412 246.031,-415.317 255.237,-420.026 263.609,-424.918"/>
<polygon fill="purple" stroke="purple" points="261.96,-428.012 272.318,-430.24 265.611,-422.039 261.96,-428.012"/>
</g>
<!-- Acceleration_2D -->
<g id="node24" class="node"><title>Acceleration_2D</title>
<ellipse fill="none" stroke="black" cx="130" cy="-133" rx="97.7889" ry="19.0919"/>
<text text-anchor="middle" x="130" y="-129" font-family="Times Roman,serif" font-size="15.00">Acceleration_2D</text>
</g>
<!-- Video Drivers&#45;&gt;Acceleration_2D -->
<g id="edge19" class="edge"><title>Video Drivers&#45;&gt;Acceleration_2D</title>
<path fill="none" stroke="black" d="M132.775,-207.664C133.78,-191.913 134.306,-175.542 134.163,-162.157"/>
<polygon fill="black" stroke="black" points="137.661,-162.037 133.901,-152.132 130.663,-162.22 137.661,-162.037"/>
</g>
<!-- Acceleration_2D&#45;&gt;Video Drivers -->
<g id="edge18" class="edge"><title>Acceleration_2D&#45;&gt;Video Drivers</title>
<path fill="none" stroke="black" d="M124.085,-152.132C122.272,-164.233 120.793,-180.686 119.868,-197.321"/>
<polygon fill="black" stroke="black" points="116.355,-197.506 119.366,-207.664 123.347,-197.846 116.355,-197.506"/>
</g>
<!-- Pixman -->
<g id="node25" class="node"><title>Pixman</title>
<ellipse fill="none" stroke="black" cx="130" cy="-51" rx="50.9117" ry="19.0919"/>
<text text-anchor="middle" x="130" y="-47" font-family="Times Roman,serif" font-size="15.00">Pixman</text>
</g>
<!-- Acceleration_2D&#45;&gt;Pixman -->
<g id="edge16" class="edge"><title>Acceleration_2D&#45;&gt;Pixman</title>
<path fill="none" stroke="black" d="M130,-113.981C130,-104.014 130,-91.5862 130,-80.41"/>
<polygon fill="black" stroke="black" points="133.5,-80.1994 130,-70.1995 126.5,-80.1995 133.5,-80.1994"/>
</g>
<!-- Dispatch&#45;&gt;Video Drivers -->
<g id="edge31" class="edge"><title>Dispatch&#45;&gt;Video Drivers</title>
<path fill="none" stroke="black" d="M644.086,-285.25C639.264,-321.388 622.927,-396.768 570,-408 549.838,-412.279 219.162,-412.279 199,-408 164.894,-400.762 145.982,-366.887 135.554,-334.04"/>
<polygon fill="black" stroke="black" points="138.889,-332.974 132.707,-324.369 132.174,-334.95 138.889,-332.974"/>
</g>
<!-- Render -->
<g id="node31" class="node"><title>Render</title>
<ellipse fill="none" stroke="black" cx="646" cy="-133" rx="48.9975" ry="19.0919"/>
<text text-anchor="middle" x="646" y="-129" font-family="Times Roman,serif" font-size="15.00">Render</text>
</g>
<!-- Dispatch&#45;&gt;Render -->
<g id="edge27" class="edge"><title>Dispatch&#45;&gt;Render</title>
<path fill="none" stroke="green" d="M646,-246.944C646,-224.821 646,-188.081 646,-162.316"/>
<polygon fill="green" stroke="green" points="649.5,-162.02 646,-152.02 642.5,-162.02 649.5,-162.02"/>
</g>
<!-- RandR -->
<g id="node32" class="node"><title>RandR</title>
<ellipse fill="none" stroke="black" cx="381" cy="-133" rx="46.1672" ry="19.0919"/>
<text text-anchor="middle" x="381" y="-129" font-family="Times Roman,serif" font-size="15.00">RandR</text>
</g>
<!-- Dispatch&#45;&gt;RandR -->
<g id="edge23" class="edge"><title>Dispatch&#45;&gt;RandR</title>
<path fill="none" stroke="green" d="M630.797,-247.465C618.426,-233.867 599.678,-216.372 579,-208 549.499,-196.056 464.381,-214.405 436,-200 418.997,-191.37 405.352,-174.87 395.906,-160.405"/>
<polygon fill="green" stroke="green" points="398.799,-158.428 390.575,-151.75 392.839,-162.1 398.799,-158.428"/>
</g>
<!-- Dispatch&#45;&gt;Xinput -->
<g id="edge25" class="edge"><title>Dispatch&#45;&gt;Xinput</title>
<path fill="none" stroke="green" d="M627.649,-247.786C604.685,-224.993 565.178,-185.781 538.823,-159.623"/>
<polygon fill="green" stroke="green" points="540.994,-156.846 531.431,-152.286 536.063,-161.815 540.994,-156.846"/>
</g>
<!-- GLX -->
<g id="node34" class="node"><title>GLX</title>
<ellipse fill="none" stroke="black" cx="746" cy="-133" rx="33.234" ry="19.0919"/>
<text text-anchor="middle" x="746" y="-129" font-family="Times Roman,serif" font-size="15.00">GLX</text>
</g>
<!-- Dispatch&#45;&gt;GLX -->
<g id="edge29" class="edge"><title>Dispatch&#45;&gt;GLX</title>
<path fill="none" stroke="green" d="M663.591,-247.618C675.55,-234.739 691.421,-216.879 704,-200 713.506,-187.245 723.011,-172.309 730.569,-159.781"/>
<polygon fill="green" stroke="green" points="733.599,-161.534 735.7,-151.149 727.582,-157.957 733.599,-161.534"/>
</g>
<!-- RandR&#45;&gt;Video Drivers -->
<g id="edge33" class="edge"><title>RandR&#45;&gt;Video Drivers</title>
<path fill="none" stroke="black" d="M368.81,-151.458C357.11,-167.43 337.872,-189.554 315,-200 291.857,-210.57 228.105,-199.687 190.898,-209.004"/>
<polygon fill="black" stroke="black" points="189.571,-205.756 181.163,-212.202 191.756,-212.406 189.571,-205.756"/>
</g>
<!-- Xinput&#45;&gt;Event_Queue -->
<g id="edge45" class="edge"><title>Xinput&#45;&gt;Event_Queue</title>
<path fill="none" stroke="black" d="M507.418,-158.393C503.376,-180.794 497.486,-213.434 493.254,-236.886"/>
<polygon fill="black" stroke="black" points="489.77,-236.482 491.439,-246.944 496.659,-237.725 489.77,-236.482"/>
</g>
<!-- GLX&#45;&gt;Mesa -->
<g id="edge51" class="edge"><title>GLX&#45;&gt;Mesa</title>
<path fill="none" stroke="black" d="M753.386,-151.537C759.737,-165.884 769.934,-185.66 783,-200 800.369,-219.062 824.284,-235.413 844.021,-247.071"/>
<polygon fill="black" stroke="black" points="842.343,-250.144 852.757,-252.091 845.83,-244.074 842.343,-250.144"/>
</g>
</g>
</svg>
